# xmcd CD database file
#
# Track frame offsets:
#	150
#	25010
#	47027
#	76510
#	95592
#	120507
#	138902
#	165805
#	191750
#	208167
#
# Disc length: 3098 seconds
#
# Revision: 0
# Processed by: cddbd v1.5.1PL0 Copyright (c) Steve Scherf et al.
# Submitted via: CDex 1.50
#
DISCID=740c180a
DTITLE=Ahmad Mansour - Apples And Oranges
DYEAR=2001
DGENRE=Jazz
TTITLE0=Eavesdrop
TTITLE1=AudioLeap Year
TTITLE2=Del Anguizan
TTITLE3=Jolly Jumper
TTITLE4=Ellipse
TTITLE5=Heyday
TTITLE6=Toube-Ye Mast
TTITLE7=Open Sky
TTITLE8=Gnossienne
TTITLE9=Egresse
EXTD=YEAR: 2001
EXTT0=
EXTT1=
EXTT2=
EXTT3=
EXTT4=
EXTT5=
EXTT6=
EXTT7=
EXTT8=
EXTT9=
PLAYORDER=
